<svg xmlns="http://www.w3.org/2000/svg" viewBox="0 0 97.43 97.43"><g id="Layer_2" data-name="Layer 2"><g id="Layer_1-2" data-name="Layer 1"><path d="M0,48.71A48.71,48.71,0,0,1,48.72,0h0A48.71,48.71,0,0,1,97.43,48.71h0A48.71,48.71,0,0,1,48.72,97.43h0A48.72,48.72,0,0,1,0,48.71ZM17.55,17.55A43.92,43.92,0,0,0,4.64,48.71h0A43.92,43.92,0,0,0,17.55,79.88h0A43.92,43.92,0,0,0,48.72,92.79h0A43.9,43.9,0,0,0,79.88,79.88h0A43.92,43.92,0,0,0,92.79,48.71h0A43.92,43.92,0,0,0,79.88,17.55h0A43.9,43.9,0,0,0,48.72,4.64h0A43.92,43.92,0,0,0,17.55,17.55Z"/><path d="M39.52,36.17c0,4.37-2.67,7.92-6,7.92s-6-3.55-6-7.92,2.67-7.91,6-7.91S39.52,31.8,39.52,36.17Z"/><path d="M69.84,36.17c0,4.37-2.67,7.92-6,7.92s-6-3.55-6-7.92,2.67-7.91,6-7.91S69.84,31.8,69.84,36.17Z"/><path d="M48.72,80.25C30.91,80,23.43,64.7,23.61,63.36c1.14-.7,9.42,10.12,25.11,10.18s24-10.88,25.1-10.18C74,64.7,66.52,80,48.72,80.25Z"/></g></g></svg>